<mxfile host="65bd71144e">
    <diagram id="fNfvv5zCHtKDAtVlrwFy" name="Page-1">
        <mxGraphModel dx="780" dy="382" grid="1" gridSize="10" guides="1" tooltips="1" connect="1" arrows="1" fold="1" page="1" pageScale="1" pageWidth="1169" pageHeight="827" math="0" shadow="0">
            <root>
                <mxCell id="0"/>
                <mxCell id="1" parent="0"/>
                <mxCell id="2" value="" style="rounded=0;whiteSpace=wrap;html=1;fillColor=none;" parent="1" vertex="1">
                    <mxGeometry x="60" y="100" width="360" height="360" as="geometry"/>
                </mxCell>
                <mxCell id="4WJjTBDca-TGej2Zey_a-18" value="" style="shape=flexArrow;endArrow=classic;startArrow=classic;html=1;rounded=0;fillColor=#000000;" parent="1" edge="1">
                    <mxGeometry width="100" height="100" relative="1" as="geometry">
                        <mxPoint x="349.84000000000003" y="330" as="sourcePoint"/>
                        <mxPoint x="349.5" y="230" as="targetPoint"/>
                    </mxGeometry>
                </mxCell>
                <mxCell id="4WJjTBDca-TGej2Zey_a-19" value="" style="shape=flexArrow;endArrow=classic;startArrow=classic;html=1;rounded=0;fillColor=#000000;" parent="1" edge="1">
                    <mxGeometry width="100" height="100" relative="1" as="geometry">
                        <mxPoint x="290" y="169.66" as="sourcePoint"/>
                        <mxPoint x="190" y="169.66" as="targetPoint"/>
                    </mxGeometry>
                </mxCell>
                <mxCell id="4WJjTBDca-TGej2Zey_a-20" value="" style="shape=flexArrow;endArrow=classic;startArrow=classic;html=1;rounded=0;fillColor=#000000;" parent="1" edge="1">
                    <mxGeometry width="100" height="100" relative="1" as="geometry">
                        <mxPoint x="290" y="389.66" as="sourcePoint"/>
                        <mxPoint x="190" y="389.66" as="targetPoint"/>
                    </mxGeometry>
                </mxCell>
                <mxCell id="4WJjTBDca-TGej2Zey_a-21" value="" style="shape=flexArrow;endArrow=classic;startArrow=classic;html=1;rounded=0;fillColor=#000000;" parent="1" edge="1">
                    <mxGeometry width="100" height="100" relative="1" as="geometry">
                        <mxPoint x="290" y="330" as="sourcePoint"/>
                        <mxPoint x="190" y="230" as="targetPoint"/>
                    </mxGeometry>
                </mxCell>
                <mxCell id="4WJjTBDca-TGej2Zey_a-22" value="CITL" style="text;html=1;strokeColor=none;fillColor=none;align=center;verticalAlign=middle;whiteSpace=wrap;rounded=0;" parent="1" vertex="1">
                    <mxGeometry x="350" y="265" width="60" height="30" as="geometry"/>
                </mxCell>
                <mxCell id="4WJjTBDca-TGej2Zey_a-23" value="Application" style="text;html=1;strokeColor=default;fillColor=none;align=center;verticalAlign=middle;whiteSpace=wrap;rounded=0;" parent="1" vertex="1">
                    <mxGeometry x="80" y="120" width="100" height="100" as="geometry"/>
                </mxCell>
                <mxCell id="4WJjTBDca-TGej2Zey_a-24" value="slm-controller" style="text;html=1;strokeColor=default;fillColor=none;align=center;verticalAlign=middle;whiteSpace=wrap;rounded=0;" parent="1" vertex="1">
                    <mxGeometry x="300" y="120" width="100" height="100" as="geometry"/>
                </mxCell>
                <mxCell id="4WJjTBDca-TGej2Zey_a-25" value="slm-designer" style="text;html=1;strokeColor=default;fillColor=none;align=center;verticalAlign=middle;whiteSpace=wrap;rounded=0;" parent="1" vertex="1">
                    <mxGeometry x="300" y="340" width="100" height="100" as="geometry"/>
                </mxCell>
                <mxCell id="4WJjTBDca-TGej2Zey_a-26" value="waveprop" style="text;html=1;strokeColor=default;fillColor=none;align=center;verticalAlign=middle;whiteSpace=wrap;rounded=0;" parent="1" vertex="1">
                    <mxGeometry x="80" y="340" width="100" height="100" as="geometry"/>
                </mxCell>
                <mxCell id="3" value="" style="rounded=0;whiteSpace=wrap;html=1;fillColor=none;" parent="1" vertex="1">
                    <mxGeometry x="500" y="100" width="360" height="360" as="geometry"/>
                </mxCell>
                <mxCell id="4" value="SLM" style="text;html=1;strokeColor=default;fillColor=none;align=center;verticalAlign=middle;whiteSpace=wrap;rounded=0;" parent="1" vertex="1">
                    <mxGeometry x="520" y="120" width="320" height="100" as="geometry"/>
                </mxCell>
                <mxCell id="5" value="Camera" style="text;html=1;strokeColor=default;fillColor=none;align=center;verticalAlign=middle;whiteSpace=wrap;rounded=0;" parent="1" vertex="1">
                    <mxGeometry x="520" y="340" width="320" height="100" as="geometry"/>
                </mxCell>
                <mxCell id="6" value="" style="shape=flexArrow;endArrow=classic;startArrow=classic;html=1;rounded=0;fillColor=#000000;" parent="1" edge="1">
                    <mxGeometry width="100" height="100" relative="1" as="geometry">
                        <mxPoint x="510" y="169.5799999999999" as="sourcePoint"/>
                        <mxPoint x="410" y="169.5799999999999" as="targetPoint"/>
                    </mxGeometry>
                </mxCell>
                <mxCell id="7" value="" style="shape=flexArrow;endArrow=classic;startArrow=classic;html=1;rounded=0;fillColor=#000000;" parent="1" edge="1">
                    <mxGeometry width="100" height="100" relative="1" as="geometry">
                        <mxPoint x="510" y="389.5799999999999" as="sourcePoint"/>
                        <mxPoint x="410" y="389.5799999999999" as="targetPoint"/>
                    </mxGeometry>
                </mxCell>
                <mxCell id="8" value="Software" style="text;html=1;strokeColor=none;fillColor=none;align=center;verticalAlign=middle;whiteSpace=wrap;rounded=0;" parent="1" vertex="1">
                    <mxGeometry x="210" y="70" width="60" height="30" as="geometry"/>
                </mxCell>
                <mxCell id="9" value="Hardware" style="text;html=1;strokeColor=none;fillColor=none;align=center;verticalAlign=middle;whiteSpace=wrap;rounded=0;" parent="1" vertex="1">
                    <mxGeometry x="650" y="70" width="60" height="30" as="geometry"/>
                </mxCell>
            </root>
        </mxGraphModel>
    </diagram>
</mxfile>